<svg width="38" height="38" viewBox="0 0 38 38" fill="none" xmlns="http://www.w3.org/2000/svg">
<path d="M5.58537 33.8803L2.60059 0.401367H35.3993L32.4116 33.8752L18.9801 37.5989L5.58537 33.8803Z" fill="#C7C8C9"/>
<path d="M19.0002 34.7528L29.8537 31.7436L32.4071 3.13855H19.0002V34.7528Z" fill="#C7C8C9"/>
<path d="M19.0002 15.268H24.4337L24.8089 11.0634H19.0002V6.95728H29.2965L29.1979 8.05898L28.1885 19.3741H19.0002V15.268Z" fill="#56575A"/>
<path d="M19.0245 25.9317L19.0064 25.9371L14.4337 24.7024L14.1412 21.4276H10.02L10.5951 27.8748L19.0058 30.2091L19.0245 30.2038V25.9317Z" fill="#56575A"/>
<path d="M24.0847 19.2004L23.5901 24.6991L19.0105 25.9353V30.2073L27.4281 27.8745L27.4898 27.1807L28.2041 19.2004H24.0847Z" fill="#56575A"/>
<path d="M19.0143 6.95728V11.0634H9.09629L9.01406 10.1407L8.82703 8.05898L8.72876 6.95728H19.0143ZM19.0003 15.2686V19.3747H14.4852L14.4029 18.452L14.2156 16.3703L14.1176 15.2686H19.0003Z" fill="#56575A"/>
</svg>
