<svg width="38" height="38" viewBox="0 0 38 38" fill="none" xmlns="http://www.w3.org/2000/svg">
<path d="M5.65163 33.8069L2.6814 0.493103H35.3186L32.3451 33.8019L18.9801 37.5069L5.65163 33.8069Z" fill="#C7C8C9"/>
<path d="M19 34.675L29.7997 31.6807L32.3407 3.21692H19V34.675Z" fill="#C7C8C9"/>
<path d="M19.0001 15.5726H13.5934L13.2199 11.3884H19.0001V7.30286H8.75464L8.85261 8.39892L9.85664 19.6585H19.0001V15.5726ZM19.0001 26.1838L18.982 26.1889L14.4318 24.9598L14.1411 21.7016H10.0392L10.6116 28.1168L18.9814 30.4401L19.0001 30.4351V26.1838Z" fill="#56575A"/>
<path d="M18.9858 15.5726V19.6585H24.017L23.5429 24.9574L18.9858 26.1874V30.4383L27.3622 28.1168L27.4236 27.4265L28.3837 16.6699L28.4832 15.5726H27.3824H18.9858ZM18.9858 7.30286V11.3884H28.8552L28.9371 10.4705L29.1235 8.39892L29.2212 7.30286H18.9858Z" fill="#56575A"/>
</svg>
