<svg width="38" height="38" viewBox="0 0 38 38" fill="none" xmlns="http://www.w3.org/2000/svg">
<path d="M0 0H38V38H0V0Z" fill="#C7C8C9"/>
<path d="M9.9916 31.7555L12.8995 29.9956C13.4606 30.9903 13.9709 31.832 15.1951 31.832C16.3685 31.832 17.1084 31.373 17.1084 29.5876V17.4457H20.6794V29.6381C20.6794 33.3367 18.5113 35.0203 15.3481 35.0203C12.4914 35.0203 10.8334 33.5411 9.9916 31.7555ZM22.619 31.3729L25.5266 29.6894C26.2921 30.9394 27.2869 31.8576 29.0468 31.8576C30.5266 31.8576 31.4701 31.1178 31.4701 30.0975C31.4701 28.8732 30.5008 28.4394 28.8683 27.7254L27.9757 27.3425C25.3993 26.246 23.6903 24.8685 23.6903 21.9606C23.6903 19.2822 25.7309 17.2415 28.9195 17.2415C31.1897 17.2415 32.8222 18.0323 33.9954 20.0984L31.2149 21.8841C30.6026 20.7873 29.9397 20.3537 28.9193 20.3537C27.8734 20.3537 27.2102 21.017 27.2102 21.8841C27.2102 22.9554 27.8734 23.3893 29.4038 24.0525L30.2965 24.435C33.3321 25.7361 35.041 27.0624 35.041 30.0466C35.041 33.2608 32.5158 35.0207 29.1233 35.0207C25.8073 35.0207 23.6648 33.4391 22.619 31.3729Z" fill="#56575A"/>
</svg>
